# Blender3D v249 OBJ File: ship.blend
# www.blender3d.org
# mtllib asdf.mtl
v 0.013148 -0.044945 -0.068632
v 0.013683 -0.044945 -0.068632
v 0.013148 -0.039093 0.059176
v 0.013683 -0.039093 0.059176
v 0.013148 -0.218980 0.047759
v 0.013683 -0.218980 0.047759
v -0.058804 -0.044945 -0.039058
v 0.085635 -0.044945 -0.039058
v -0.058804 -0.044945 0.087017
v 0.085635 -0.044945 0.087017
v -0.058804 -0.218980 0.047759
v 0.085635 -0.218980 0.047759
v -0.058804 0.093355 -0.039058
v 0.085635 0.093355 -0.039058
v -0.058804 0.093355 0.087018
v 0.085635 0.093355 0.087018
v 0.013148 0.087503 0.114859
v 0.013683 0.087503 0.114859
v 0.013148 0.093355 -0.039058
v 0.013683 0.093355 -0.039058
v 0.013148 0.339986 0.087017
v 0.013683 0.339986 0.087017
v 0.013148 0.339986 0.044543
v 0.013683 0.339986 0.044543
v -0.058804 0.247344 0.044543
v 0.085635 0.247344 0.044543
v -0.058804 0.247344 0.087018
v 0.085635 0.247344 0.087018
v -0.041387 0.204313 0.075968
v 0.068218 0.204313 0.075968
v -0.041387 0.204313 0.041505
v 0.068218 0.204313 0.041505
v -0.041387 0.079368 0.075968
v 0.068218 0.079368 0.075968
v -0.041387 0.079368 -0.026328
v 0.068218 0.079368 -0.026328
v -0.041387 -0.032848 -0.026328
v 0.068218 -0.032848 -0.026328
v -0.041387 -0.032848 0.075968
v 0.068218 -0.032848 0.075968
v -0.041387 -0.174139 0.035947
v 0.068218 -0.174139 0.035947
v -0.070405 -0.174139 -0.011360
v 0.097235 -0.174139 -0.011360
v -0.070405 -0.032848 0.005617
v 0.097235 -0.032848 0.005617
v -0.070405 -0.174058 0.008982
v 0.097235 -0.174058 0.008982
v -0.070405 -0.032848 0.048240
v 0.097235 -0.032848 0.048240
v -0.070405 0.079368 0.048240
v 0.097235 0.079368 0.048240
v -0.070405 0.079368 0.005617
v 0.097235 0.079368 0.005617
v -0.070405 0.204313 0.038342
v 0.097235 0.204313 0.038342
v -0.070405 0.204313 0.043779
v 0.097235 0.204313 0.043779
v -0.193944 0.109116 0.031203
v 0.220775 0.109116 0.031203
v -0.193944 0.109116 0.038502
v 0.220775 0.109116 0.038502
v -0.175214 -0.012169 0.038502
v 0.202045 -0.012169 0.038502
v -0.175214 -0.012169 0.016837
v 0.202045 -0.012169 0.016837
v -0.236478 -0.127906 0.016837
v 0.263309 -0.127907 0.016837
v -0.236478 -0.127907 0.038502
v 0.263309 -0.127907 0.038502
v -0.193944 -0.182630 0.008596
v 0.220775 -0.182630 0.008596
v -0.193944 -0.182630 0.038502
v 0.220775 -0.182630 0.038502
v 0.013148 -0.219048 -0.061506
v 0.013683 -0.219048 -0.061506
v 0.013148 -0.193207 -0.081053
v 0.013683 -0.193207 -0.081053
v -0.058804 -0.219053 -0.072842
v 0.085635 -0.219053 -0.072842
v -0.058804 -0.204114 -0.084143
v 0.085635 -0.204114 -0.084143
v -0.041387 -0.174139 -0.048877
v 0.068218 -0.174139 -0.048877
v -0.041387 -0.158738 -0.061680
v 0.068218 -0.158738 -0.061680
v -0.048890 -0.174139 -0.051876
v 0.075720 -0.174139 -0.051876
v -0.000641 -0.200499 -0.063020
v 0.027472 -0.200499 -0.063020
v -0.045015 -0.207225 -0.064926
v 0.071846 -0.207225 -0.064926
v -0.045015 -0.216438 -0.057956
v 0.071846 -0.216438 -0.057956
v -0.000641 -0.216435 -0.050965
v 0.027472 -0.216435 -0.050965
v -0.045015 -0.216393 0.016421
v 0.071846 -0.216393 0.016421
v -0.000641 -0.216393 0.016421
v 0.027472 -0.216393 0.016421
v -0.006573 -0.240314 -0.057469
v 0.033404 -0.240314 -0.057469
v -0.006573 -0.240287 -0.014113
v 0.033404 -0.240287 -0.014113
v -0.035124 -0.240287 -0.014113
v 0.061955 -0.240287 -0.014113
v -0.035124 -0.240316 -0.061968
v 0.061955 -0.240316 -0.061968
v -0.006573 -0.230060 -0.065226
v 0.033404 -0.230060 -0.065226
v -0.035124 -0.234388 -0.066452
v 0.061955 -0.234388 -0.066452
vt 0.202264 0.696369
vt 0.197131 0.677923
vt 0.204348 0.677922
vt 0.189914 0.677922
vt 0.191998 0.696369
vt 0.187902 0.552756
vt 0.263904 0.359929
vt 0.289998 0.530362
vt 0.000071 0.530362
vt 0.026165 0.359929
vt 0.102167 0.552756
vt 0.819471 0.544755
vt 0.872219 0.673521
vt 0.831274 0.668888
vt 0.806031 0.668888
vt 0.765085 0.673521
vt 0.817834 0.544755
vt 0.290069 0.693087
vt 0.232286 0.671439
vt 0.251725 0.671797
vt 0.099244 0.671797
vt 0.118683 0.671439
vt 0.060900 0.693087
vt 0.047902 0.634698
vt 0.050425 0.611360
vt 0.060201 0.634660
vt 0.057535 0.611338
vt 0.050568 0.634698
vt 0.057678 0.634720
vt 0.047902 0.658021
vt 0.060201 0.658058
vt 0.761169 0.777533
vt 0.761042 0.818977
vt 0.733857 0.777450
vt 0.733717 0.823193
vt 0.358488 0.833285
vt 0.331163 0.829069
vt 0.358347 0.787541
vt 0.331036 0.787625
vt 0.130056 0.848512
vt 0.102926 0.858449
vt 0.102968 0.815490
vt 0.130083 0.820872
vt 0.088015 0.815490
vt 0.088057 0.858449
vt 0.060927 0.848512
vt 0.060900 0.820872
vt 0.622485 0.680470
vt 0.622489 0.707246
vt 0.615068 0.699058
vt 0.617710 0.675202
vt 0.055324 0.681914
vt 0.047902 0.690102
vt 0.047906 0.663327
vt 0.052681 0.658058
vt 0.411792 0.808261
vt 0.435247 0.804679
vt 0.420692 0.816749
vt 0.449080 0.817871
vt 0.183598 0.777441
vt 0.197431 0.764248
vt 0.211986 0.776318
vt 0.220886 0.767830
vt 0.514300 0.815706
vt 0.489688 0.811790
vt 0.514422 0.769928
vt 0.489878 0.740641
vt 0.208142 0.777441
vt 0.208331 0.848590
vt 0.183598 0.806728
vt 0.183720 0.852506
vt 0.045660 0.816589
vt 0.008542 0.825937
vt 0.008672 0.783489
vt 0.045743 0.789278
vt 0.486151 0.787541
vt 0.486281 0.829990
vt 0.449164 0.820641
vt 0.449080 0.793330
vt 0.416537 0.767058
vt 0.442623 0.740641
vt 0.190055 0.700210
vt 0.216140 0.726628
vt 0.276786 0.730432
vt 0.290069 0.700422
vt 0.289749 0.804865
vt 0.276589 0.794844
vt 0.061220 0.804865
vt 0.060900 0.700422
vt 0.074183 0.730432
vt 0.074380 0.794844
vt 0.234338 0.730302
vt 0.221240 0.700210
vt 0.129729 0.700210
vt 0.116631 0.730302
vt 0.234120 0.801397
vt 0.220886 0.815490
vt 0.130083 0.815490
vt 0.116849 0.801397
vt 0.489747 0.815706
vt 0.505992 0.819846
vt 0.489688 0.834821
vt 0.505897 0.850841
vt 0.432871 0.853006
vt 0.432776 0.822011
vt 0.449080 0.836986
vt 0.449021 0.817871
vt 0.060181 0.588575
vt 0.060201 0.611338
vt 0.045743 0.600752
vt 0.051264 0.582047
vt 0.060201 0.571461
vt 0.045743 0.582047
vt 0.045764 0.559284
vt 0.054680 0.552756
vt 0.382255 0.818516
vt 0.400234 0.805978
vt 0.382266 0.860993
vt 0.400252 0.874855
vt 0.517792 0.874855
vt 0.517810 0.805978
vt 0.535777 0.860993
vt 0.535788 0.818516
vt 0.242967 0.863772
vt 0.242969 0.815490
vt 0.260489 0.823241
vt 0.259004 0.871766
vt 0.278009 0.815490
vt 0.278012 0.863772
vt 0.261975 0.871766
vt 0.400252 0.805894
vt 0.371644 0.805978
vt 0.379336 0.740702
vt 0.400060 0.740641
vt 0.538708 0.740702
vt 0.546400 0.805978
vt 0.517792 0.805894
vt 0.517984 0.740641
vt 0.734091 0.661252
vt 0.733717 0.536148
vt 0.754441 0.536086
vt 0.754815 0.661190
vt 0.183624 0.552756
vt 0.204348 0.552818
vt 0.203975 0.677922
vt 0.183250 0.677860
vt 0.733761 0.777450
vt 0.733717 0.661263
vt 0.740743 0.777446
vt 0.754441 0.661252
vt 0.546400 0.740641
vt 0.567124 0.740652
vt 0.560098 0.856835
vt 0.567080 0.856838
vt 0.489931 0.000000
vt 0.608090 0.006169
vt 0.449080 0.052789
vt 0.607673 0.142300
vt 0.290487 0.142300
vt 0.290069 0.006169
vt 0.408229 0.000000
vt 0.290071 0.688646
vt 0.448656 0.596753
vt 0.449080 0.734755
vt 0.330919 0.740641
vt 0.449503 0.596753
vt 0.608089 0.688646
vt 0.567240 0.740641
vt 0.145035 0.552756
vt 0.116452 0.553282
vt 0.234517 0.553282
vt 0.205935 0.552756
vt 0.348338 0.578237
vt 0.448328 0.489878
vt 0.449831 0.489878
vt 0.549822 0.578237
vt 0.507348 0.162906
vt 0.607346 0.248891
vt 0.290814 0.248891
vt 0.390812 0.162906
vt 0.489073 0.279682
vt 0.606970 0.371278
vt 0.291189 0.371278
vt 0.409087 0.279682
vt 0.330067 0.462780
vt 0.447965 0.371278
vt 0.450195 0.371278
vt 0.568093 0.462780
vt 0.622869 0.536086
vt 0.621144 0.675011
vt 0.615892 0.536343
vt 0.615946 0.675202
vt 0.615013 0.675202
vt 0.609816 0.675011
vt 0.615068 0.536343
vt 0.608090 0.536086
vt 0.363656 0.805978
vt 0.382255 0.826804
vt 0.360175 0.809843
vt 0.360190 0.851300
vt 0.242951 0.860811
vt 0.220886 0.836316
vt 0.242967 0.819354
vt 0.239486 0.815490
vt 0.678403 0.538870
vt 0.719617 0.536086
vt 0.688730 0.657577
vt 0.727045 0.655162
vt 0.629541 0.655162
vt 0.636969 0.536086
vt 0.667856 0.657577
vt 0.678183 0.538870
vt 0.777707 0.779655
vt 0.818652 0.775022
vt 0.782889 0.902918
vt 0.767726 0.902519
vt 0.854416 0.902918
vt 0.859598 0.779655
vt 0.869578 0.902519
vt 0.733717 0.762106
vt 0.695401 0.764521
vt 0.622869 0.762106
vt 0.661184 0.764521
vt 0.063898 0.700210
vt 0.144968 0.698718
vt 0.287071 0.700210
vt 0.206001 0.698718
vt 0.716118 0.900064
vt 0.678293 0.902340
vt 0.640468 0.900064
vt 0.804381 0.531607
vt 0.761661 0.537454
vt 0.875643 0.537454
vt 0.832924 0.531607
vt 0.931495 0.272810
vt 0.931554 0.396676
vt 0.913502 0.287841
vt 0.913330 0.444516
vt 0.907646 0.889031
vt 0.889423 0.841192
vt 0.907474 0.732357
vt 0.889481 0.717326
vt 0.951763 0.624843
vt 0.932168 0.614289
vt 0.970383 0.486065
vt 0.947684 0.444516
vt 0.167734 0.552756
vt 0.183250 0.722529
vt 0.145035 0.594305
vt 0.163655 0.733083
vt 0.000405 0.783489
vt 0.000000 0.668123
vt 0.045501 0.690912
vt 0.045743 0.772055
vt 0.000243 0.575545
vt 0.045743 0.552756
vt 0.045338 0.668122
vt 0.000000 0.656688
vt 0.960469 0.731370
vt 0.942898 0.745578
vt 0.172520 0.853818
vt 0.154949 0.839610
vt 0.911459 0.167548
vt 0.888809 0.158111
vt 0.932168 0.602626
vt 0.909517 0.612064
vt 0.932168 0.039258
vt 0.914331 0.000000
vt 0.906646 0.444516
vt 0.888809 0.483774
vt 0.970163 0.849980
vt 0.954845 0.891760
vt 0.160573 1.000000
vt 0.145255 0.958221
vt 0.449080 0.787541
vt 0.449141 0.743251
vt 0.481980 0.785423
vt 0.489688 0.740641
vt 0.331036 0.740641
vt 0.371583 0.743251
vt 0.338744 0.785423
vt 0.371644 0.787541
vt 0.290071 0.740762
vt 0.330702 0.740641
vt 0.290405 0.852136
vt 0.331036 0.852015
vt 0.567124 0.852015
vt 0.567458 0.740641
vt 0.607755 0.852136
vt 0.608089 0.740762
vt 0.746852 0.000000
vt 0.747582 0.237977
vt 0.678293 0.088444
vt 0.678743 0.235104
vt 0.677843 0.235104
vt 0.609004 0.237977
vt 0.609734 0.000000
vt 0.748496 0.443398
vt 0.748973 0.287663
vt 0.817803 0.287874
vt 0.817055 0.531607
vt 0.819502 0.287874
vt 0.888331 0.287663
vt 0.888809 0.443398
vt 0.820250 0.531607
vt 0.117311 0.008680
vt 0.145035 0.256235
vt 0.000000 0.230249
vt 0.077618 0.000000
vt 0.290069 0.230249
vt 0.172758 0.008680
vt 0.212451 0.000000
vt 0.144408 0.391518
vt 0.145661 0.391518
vt 0.749376 0.156295
vt 0.818216 0.153158
vt 0.819089 0.153158
vt 0.887928 0.156295
vt 0.747967 0.363528
vt 0.679147 0.366823
vt 0.677439 0.366823
vt 0.608619 0.363528
vt 0.818652 0.010921
vt 0.749856 0.000000
vt 0.887449 0.000000
vt 0.679666 0.536086
vt 0.748496 0.535875
vt 0.608090 0.535875
vt 0.676920 0.536086
vt 0.125716 0.532603
vt 0.164353 0.532603
vn 0.293800 -0.611028 -0.735069
vn -0.293800 -0.611028 -0.735069
vn 1.000000 -0.000000 -0.000000
vn -1.000000 0.000000 0.000000
vn -0.727363 0.185532 -0.660698
vn 0.727363 0.185532 -0.660698
vn 0.007443 -0.999964 0.003953
vn -0.007443 -0.999964 0.003952
vn -0.124712 -0.598578 -0.791297
vn -0.124713 -0.598576 -0.791298
vn 0.124713 -0.598576 -0.791298
vn 0.124712 -0.598578 -0.791297
vn -0.000001 -1.000000 0.000623
vn 0.000023 -1.000000 0.000608
vn -0.000023 -1.000000 0.000608
vn 0.000001 -1.000000 0.000623
vn -0.032526 0.067871 -0.997164
vn -0.032526 0.067870 -0.997164
vn 0.032526 0.067871 -0.997164
vn 0.032526 0.067870 -0.997164
vn 0.871808 -0.295518 -0.390665
vn -0.871809 -0.295518 -0.390664
vn -0.871809 -0.295518 -0.390665
vn -0.957096 -0.174815 -0.231099
vn 0.957096 -0.174815 -0.231099
vn 0.923853 -0.382748 0.000232
vn 0.923853 -0.382748 0.000233
vn -0.923853 -0.382747 0.000233
vn -0.000000 -0.787530 0.616276
vn 0.000000 -0.787531 0.616276
vn -0.970492 -0.241133 0.000150
vn 0.970492 -0.241133 0.000150
vn 0.185740 -0.982599 0.000612
vn -0.185740 -0.982599 0.000612
vn -0.000000 -0.996610 -0.082271
vn -0.000000 -0.996610 -0.082270
vn -0.185706 -0.982605 0.000597
vn -0.185707 -0.982605 0.000597
vn 0.185707 -0.982605 0.000597
vn 0.185708 -0.982605 0.000597
vn 0.586430 -0.488663 -0.645994
vn -0.586430 -0.488663 -0.645994
vn -0.698237 -0.431874 -0.570920
vn -0.698237 -0.431873 -0.570921
vn 0.698238 -0.431873 -0.570920
vn -0.155630 -0.951416 -0.265684
vn -0.155630 -0.951415 -0.265684
vn 0.155630 -0.951416 -0.265683
vn 0.155629 -0.951415 -0.265684
vn 0.935917 0.225153 0.270860
vn 0.935736 0.212781 0.281288
vn -0.935917 0.225153 0.270860
vn -0.935736 0.212781 0.281288
vn 0.789550 -0.613686 0.000000
vn 0.789550 -0.613687 -0.000003
vn -0.789550 -0.613686 0.000000
vn -0.789550 -0.613687 -0.000002
vn 0.883816 0.467834 0.000002
vn -0.883816 0.467834 0.000002
vn 0.988286 -0.152615 -0.000001
vn -0.988286 -0.152615 -0.000001
vn 0.160992 0.023457 -0.986677
vn 0.134139 0.118218 -0.983886
vn -0.134139 0.118218 -0.983886
vn -0.160992 0.023457 -0.986677
vn -0.096367 -0.266608 0.958975
vn -0.217914 0.169376 0.961158
vn 0.096367 -0.266608 0.958975
vn 0.217914 0.169376 0.961158
vn -0.069220 -0.997601 0.000000
vn -0.069208 -0.997594 0.003943
vn 0.069208 -0.997594 0.003943
vn 0.069220 -0.997601 0.000000
vn 0.092521 -0.000000 0.995711
vn 0.083754 0.044334 0.995500
vn -0.092521 -0.000000 0.995711
vn -0.083754 0.044334 0.995500
vn 0.096351 0.051002 -0.994040
vn 0.106444 0.000000 -0.994319
vn -0.106444 0.000000 -0.994319
vn -0.096351 0.051002 -0.994040
vn 0.181666 0.087956 -0.979419
vn 0.138006 0.250946 -0.958113
vn -0.138006 0.250946 -0.958113
vn -0.181666 0.087956 -0.979419
vn 0.070017 0.035596 0.996910
vn 0.081597 -0.012601 0.996586
vn -0.070017 0.035596 0.996910
vn -0.081597 -0.012601 0.996586
vn 0.610383 0.792106 0.000005
vn 0.610383 0.792106 0.000013
vn -0.610383 0.792106 0.000013
vn -0.610383 0.792106 0.000005
vn 0.000002 1.000000 0.000016
vn 0.000003 1.000000 0.000003
vn -0.000003 1.000000 0.000003
vn -0.000002 1.000000 0.000016
vn 0.742541 0.023901 0.669373
vn 0.690859 -0.000000 0.722989
vn -0.690859 -0.000000 0.722989
vn -0.742541 0.023901 0.669374
vn 0.695336 0.342901 -0.631606
vn -0.104859 0.251973 -0.962036
vn -0.695336 0.342902 -0.631606
vn 0.104859 0.251973 -0.962036
vn 0.740214 0.000000 -0.672371
vn -0.740214 0.000000 -0.672371
vn 0.690859 -0.000000 0.722990
vn -0.690859 -0.000000 0.722990
vn 0.000463 -0.999999 0.001157
vn 0.002770 -0.999996 -0.000000
vn -0.000463 -0.999999 0.001158
vn -0.002771 -0.999996 -0.000000
vn 0.676813 -0.200625 0.708290
vn 0.667343 -0.199485 0.717537
vn -0.676812 -0.200625 0.708290
vn -0.667343 -0.199485 0.717537
vn 0.875640 0.130572 -0.464980
vn 0.872431 0.058304 -0.485248
vn -0.872431 0.058304 -0.485248
vn -0.875640 0.130572 -0.464980
vn 0.458470 -0.240268 0.855615
vn 0.468896 -0.240711 0.849820
vn -0.468896 -0.240711 0.849821
vn -0.458470 -0.240267 0.855615
vn 0.624532 0.212846 -0.751436
vn 0.775436 0.138944 -0.615950
vn -0.775435 0.138945 -0.615950
vn -0.624532 0.212846 -0.751436
vn 0.932312 0.361654 -0.000220
vn 0.932153 0.362065 0.000000
vn -0.932312 0.361654 -0.000220
vn -0.932152 0.362066 0.000000
vn 0.535686 0.000000 -0.844417
vn -0.535686 0.000000 -0.844417
vn -0.535685 0.000000 -0.844418
vn 0.590072 -0.000000 0.807350
vn 0.590073 -0.000000 0.807350
vn -0.590073 -0.000000 0.807350
vn -0.590072 -0.000000 0.807350
vn 0.715950 -0.333105 0.613561
vn -0.715950 -0.333105 0.613561
vn 0.535686 0.000000 -0.844418
vn -0.535686 0.000000 -0.844418
vn 0.926948 -0.375189 -0.000001
vn 0.926949 -0.375189 -0.000001
vn -0.926949 -0.375188 -0.000001
vn -0.926948 -0.375189 -0.000001
vn 0.789777 0.613395 0.000001
vn 0.789776 0.613395 -0.000000
vn -0.789776 0.613395 0.000000
vn -0.789777 0.613395 0.000001
vn 0.139739 0.108532 0.984222
vn 0.360874 -0.000000 0.932615
vn -0.360874 -0.000000 0.932615
vn -0.139739 0.108532 0.984222
vn 0.000000 0.477124 -0.878836
vn 0.381997 0.296685 -0.875246
vn -0.381997 0.296685 -0.875246
vn 0.000001 0.000000 -1.000000
vn 0.372941 0.194026 -0.907342
vn -0.372941 0.194026 -0.907342
vn -0.000001 0.000000 -1.000000
vn 0.360873 -0.375496 0.853682
vn -0.360875 -0.000000 0.932614
vn 0.360875 -0.000000 0.932614
vn -0.360873 -0.375496 0.853682
vn 0.379030 0.077256 -0.922154
vn 0.000001 0.272528 -0.962148
vn -0.379030 0.077256 -0.922154
vn -0.000001 0.272528 -0.962148
vn 0.000000 -0.220049 0.975489
vn -0.364416 -0.058982 0.929367
vn 0.364416 -0.058982 0.929367
# usemtl Material_shippng
s off
f 85/1/1 83/2/1 87/3/1
f 88/4/2 84/2/2 86/5/2
f 75/6/3 3/7/3 5/8/3
f 6/9/4 4/10/4 76/11/4
f 85/12/5 45/13/5 37/14/5
f 38/15/6 46/16/6 86/17/6
f 87/18/7 47/19/7 43/20/7
f 44/21/8 48/22/8 88/23/8
f 110/24/9 112/25/9 102/26/9
f 112/25/10 108/27/10 102/26/10
f 107/28/11 111/29/11 101/30/11
f 111/29/12 109/31/12 101/30/12
f 104/32/13 102/33/13 106/34/13
f 102/33/14 108/35/14 106/34/14
f 107/36/15 101/37/15 105/38/15
f 101/37/16 103/39/16 105/38/16
f 110/40/17 90/41/17 92/42/17
f 110/40/18 92/42/18 112/43/18
f 91/44/19 89/45/19 109/46/19
f 91/44/20 109/46/20 111/47/20
f 112/48/21 92/49/21 94/50/21
f 112/48/21 94/50/21 108/51/21
f 93/52/22 91/53/22 111/54/22
f 93/52/23 111/54/23 107/55/23
f 102/56/24 96/57/24 110/58/24
f 96/57/24 90/59/24 110/58/24
f 89/60/25 95/61/25 109/62/25
f 95/61/25 101/63/25 109/62/25
f 108/64/26 94/65/26 106/66/26
f 94/65/27 98/67/27 106/66/27
f 97/68/28 93/69/28 105/70/28
f 93/69/28 107/71/28 105/70/28
f 106/72/29 98/73/29 100/74/29
f 106/72/29 100/74/29 104/75/29
f 99/76/29 97/77/29 105/78/29
f 99/76/30 105/78/30 103/79/30
f 104/80/31 100/81/31 96/57/31
f 104/80/31 96/57/31 102/56/31
f 95/61/32 99/82/32 103/83/32
f 95/61/32 103/83/32 101/63/32
f 100/84/33 6/85/33 76/86/33
f 100/84/33 76/86/33 96/87/33
f 75/88/34 5/89/34 99/90/34
f 75/88/34 99/90/34 95/91/34
f 98/92/35 12/93/35 6/85/35
f 98/92/36 6/85/36 100/84/36
f 5/89/36 11/94/36 97/95/36
f 5/89/36 97/95/36 99/90/36
f 94/96/37 80/97/37 98/92/37
f 80/97/38 12/93/38 98/92/38
f 11/94/39 79/98/39 97/95/39
f 79/98/40 93/99/40 97/95/40
f 96/100/41 76/101/41 90/102/41
f 76/101/41 78/103/41 90/102/41
f 77/104/42 75/105/42 89/106/42
f 75/105/42 95/107/42 89/106/42
f 92/108/43 82/109/43 80/110/43
f 92/108/44 80/110/44 94/111/44
f 79/112/45 81/113/45 91/114/45
f 79/112/45 91/114/45 93/115/45
f 90/116/46 78/117/46 92/118/46
f 78/117/47 82/119/47 92/118/47
f 81/120/48 77/121/48 91/122/48
f 77/121/49 89/123/49 91/122/49
f 82/124/50 86/125/50 84/126/50
f 82/124/51 84/126/51 80/127/51
f 83/126/52 85/128/52 81/129/52
f 83/126/53 81/129/53 79/130/53
f 74/131/54 72/132/54 68/133/54
f 74/131/55 68/133/55 70/134/55
f 67/135/56 71/136/56 73/137/56
f 67/135/57 73/137/57 69/138/57
f 64/139/58 70/140/58 68/141/58
f 64/139/58 68/141/58 66/142/58
f 67/143/59 69/144/59 63/145/59
f 67/143/59 63/145/59 65/146/59
f 62/147/60 64/148/60 60/149/60
f 64/148/60 66/150/60 60/149/60
f 65/151/61 63/152/61 59/153/61
f 63/152/61 61/154/61 59/153/61
f 72/155/62 44/156/62 68/157/62
f 44/156/63 46/158/63 68/157/63
f 45/159/64 43/160/64 67/157/64
f 43/160/65 71/161/65 67/157/65
f 70/162/66 50/163/66 48/164/66
f 70/162/67 48/164/67 74/165/67
f 47/164/68 49/166/68 69/167/68
f 47/164/69 69/167/69 73/168/69
f 74/169/70 48/22/70 72/170/70
f 48/22/71 44/21/71 72/170/71
f 43/20/72 47/19/72 71/171/72
f 47/19/73 73/172/73 71/171/73
f 64/173/74 52/174/74 50/163/74
f 64/173/75 50/163/75 70/162/75
f 49/166/76 51/175/76 63/176/76
f 49/166/77 63/176/77 69/167/77
f 68/157/78 46/158/78 66/177/78
f 46/158/79 54/178/79 66/177/79
f 53/179/80 45/159/80 65/180/80
f 45/159/81 67/157/81 65/180/81
f 66/177/82 54/178/82 60/181/82
f 54/178/83 56/182/83 60/181/83
f 55/183/84 53/179/84 59/184/84
f 53/179/85 65/180/85 59/184/85
f 62/185/86 58/186/86 52/174/86
f 62/185/87 52/174/87 64/173/87
f 51/175/88 57/187/88 61/188/88
f 51/175/89 61/188/89 63/176/89
f 60/189/90 56/190/90 62/191/90
f 56/190/91 58/192/91 62/191/91
f 57/193/92 55/194/92 61/195/92
f 55/194/93 59/196/93 61/195/93
f 56/197/94 32/198/94 58/199/94
f 32/198/95 30/200/95 58/199/95
f 29/201/96 31/202/96 57/203/96
f 31/202/97 55/204/97 57/203/97
f 58/205/98 30/206/98 52/207/98
f 30/206/99 34/208/99 52/207/99
f 33/209/100 29/210/100 51/211/100
f 29/210/101 57/212/101 51/211/101
f 54/213/102 36/214/102 32/215/102
f 54/213/103 32/215/103 56/216/103
f 31/217/104 35/214/104 53/218/104
f 31/217/105 53/218/105 55/219/105
f 46/16/106 38/15/106 36/214/106
f 46/16/106 36/214/106 54/213/106
f 35/214/107 37/14/107 45/13/107
f 35/214/107 45/13/107 53/218/107
f 52/207/99 34/208/99 40/220/99
f 52/207/108 40/220/108 50/221/108
f 39/222/100 33/209/100 51/211/100
f 39/222/109 51/211/109 49/223/109
f 84/224/110 88/23/110 48/22/110
f 84/224/111 48/22/111 42/225/111
f 47/19/112 87/18/112 83/226/112
f 47/19/113 83/226/113 41/227/113
f 50/221/114 40/220/114 42/228/114
f 50/221/115 42/228/115 48/229/115
f 41/230/116 39/222/116 49/223/116
f 41/230/117 49/223/117 47/229/117
f 88/231/118 86/17/118 44/232/118
f 86/17/119 46/16/119 44/232/119
f 45/13/120 85/12/120 43/233/120
f 85/12/121 87/234/121 43/233/121
f 38/235/122 86/236/122 8/237/122
f 86/236/123 82/238/123 8/237/123
f 81/239/124 85/240/124 7/241/124
f 85/240/125 37/242/125 7/241/125
f 40/243/126 10/244/126 42/245/126
f 10/244/127 12/246/127 42/245/127
f 11/247/128 9/248/128 41/249/128
f 9/248/129 39/250/129 41/249/129
f 12/251/130 80/252/130 84/253/130
f 12/251/131 84/253/131 42/254/131
f 83/255/132 79/256/132 11/257/132
f 83/255/133 11/257/133 41/258/133
f 34/259/134 16/260/134 10/244/134
f 34/259/134 10/244/134 40/243/134
f 9/248/135 15/261/135 33/262/135
f 9/248/136 33/262/136 39/250/136
f 38/235/137 8/237/137 36/263/137
f 8/237/138 14/264/138 36/263/138
f 13/265/139 7/241/139 35/266/139
f 7/241/140 37/242/140 35/266/140
f 36/263/141 14/264/141 32/267/141
f 14/264/141 26/268/141 32/267/141
f 25/269/142 13/265/142 31/270/142
f 13/265/142 35/266/142 31/270/142
f 30/271/143 28/272/143 16/260/143
f 30/271/134 16/260/134 34/259/134
f 15/261/144 27/273/144 29/274/144
f 15/261/135 29/274/135 33/262/135
f 32/275/145 26/276/145 30/277/145
f 26/276/146 28/278/146 30/277/146
f 27/279/147 25/280/147 29/281/147
f 25/280/148 31/282/148 29/281/148
f 28/283/149 26/284/149 22/285/149
f 26/284/150 24/286/150 22/285/150
f 23/287/151 25/288/151 21/289/151
f 25/288/152 27/290/152 21/289/152
f 22/291/153 18/292/153 28/293/153
f 18/292/154 16/294/154 28/293/154
f 15/295/155 17/296/155 27/293/155
f 17/296/156 21/297/156 27/293/156
f 26/298/157 14/299/157 20/300/157
f 26/298/158 20/300/158 24/301/158
f 19/302/157 13/303/157 25/304/157
f 19/302/159 25/304/159 23/305/159
f 24/306/4 20/307/4 18/308/4
f 24/306/4 18/308/4 22/309/4
f 17/310/3 19/307/3 23/311/3
f 17/310/3 23/311/3 21/312/3
f 20/307/4 2/313/4 4/10/4
f 20/307/4 4/10/4 18/308/4
f 3/7/3 1/314/3 19/307/3
f 3/7/3 19/307/3 17/310/3
f 14/299/160 8/315/160 20/300/160
f 8/315/161 2/316/161 20/300/161
f 1/317/162 7/318/162 19/302/162
f 7/318/163 13/303/163 19/302/163
f 18/292/164 4/319/164 16/294/164
f 4/319/165 10/320/165 16/294/165
f 9/321/166 3/322/166 15/295/166
f 3/322/167 17/296/167 15/295/167
f 78/323/168 2/316/168 8/315/168
f 78/323/169 8/315/169 82/324/169
f 7/318/170 1/317/170 77/323/170
f 7/318/171 77/323/171 81/325/171
f 12/326/172 10/320/172 6/327/172
f 10/320/173 4/319/173 6/327/173
f 3/322/174 9/321/174 5/328/174
f 9/321/172 11/329/172 5/328/172
f 4/10/4 2/313/4 76/11/4
f 2/313/4 78/330/4 76/11/4
f 77/331/3 1/314/3 75/6/3
f 1/314/3 3/7/3 75/6/3
